# xmcd CD database file
#
# Track frame offsets:
#	150
#	13227
#	27247
#	46082
#	58469
#	77369
#	92992
#	110717
#	127832
#	145797
#
# Disc length: 2168 seconds
#
# Revision: 0
# Processed by: cddbd v1.4PL0 Copyright (c) Steve Scherf et al.
# Submitted via: Feurio! 1.65 - http://www.feurio.com
#
DISCID=8108760a
DTITLE=Jo Dee Messina - Jo Dee Messina -1996
DYEAR=1900
DGENRE=Country
TTITLE0=You're Not in Kansas Anymore
TTITLE1=On A wing and A Prayer
TTITLE2=He'd Never Seen Julie Cry
TTITLE3=Do You Wanna Make Something Of It
TTITLE4=Let It Go
TTITLE5=Head's Carolina, Tails California
TTITLE6=Walk To The Light
TTITLE7=I Didn't Have To Leave You
TTITLE8=Every Little Girl's Dream
TTITLE9=Another Shoulder At The Wheel
EXTD=
EXTT0=
EXTT1=
EXTT2=
EXTT3=
EXTT4=
EXTT5=
EXTT6=
EXTT7=
EXTT8=
EXTT9=
PLAYORDER=
